<?xml version="1.0" standalone="no"?>
<svg xmlns:xlink="http://www.w3.org/1999/xlink" id="wave" style="transform:rotate(0deg); transition: 0.3s" viewBox="0 0 1440 230" version="1.1" xmlns="http://www.w3.org/2000/svg"><defs><linearGradient id="sw-gradient-0" x1="0" x2="0" y1="1" y2="0"><stop stop-color="rgba(246.31, 14.441, 41.019, 1)" offset="0%"/><stop stop-color="rgba(206.503, 11, 255, 1)" offset="100%"/></linearGradient></defs><path style="transform:translate(0, 0px); opacity:1" fill="url(#sw-gradient-0)" d="M0,23L60,49.8C120,77,240,130,360,141.8C480,153,600,123,720,118.8C840,115,960,138,1080,138C1200,138,1320,115,1440,115C1560,115,1680,138,1800,138C1920,138,2040,115,2160,115C2280,115,2400,138,2520,122.7C2640,107,2760,54,2880,61.3C3000,69,3120,138,3240,138C3360,138,3480,69,3600,65.2C3720,61,3840,123,3960,126.5C4080,130,4200,77,4320,76.7C4440,77,4560,130,4680,130.3C4800,130,4920,77,5040,46C5160,15,5280,8,5400,30.7C5520,54,5640,107,5760,122.7C5880,138,6000,115,6120,118.8C6240,123,6360,153,6480,138C6600,123,6720,61,6840,34.5C6960,8,7080,15,7200,30.7C7320,46,7440,69,7560,92C7680,115,7800,138,7920,145.7C8040,153,8160,146,8280,153.3C8400,161,8520,184,8580,195.5L8640,207L8640,230L8580,230C8520,230,8400,230,8280,230C8160,230,8040,230,7920,230C7800,230,7680,230,7560,230C7440,230,7320,230,7200,230C7080,230,6960,230,6840,230C6720,230,6600,230,6480,230C6360,230,6240,230,6120,230C6000,230,5880,230,5760,230C5640,230,5520,230,5400,230C5280,230,5160,230,5040,230C4920,230,4800,230,4680,230C4560,230,4440,230,4320,230C4200,230,4080,230,3960,230C3840,230,3720,230,3600,230C3480,230,3360,230,3240,230C3120,230,3000,230,2880,230C2760,230,2640,230,2520,230C2400,230,2280,230,2160,230C2040,230,1920,230,1800,230C1680,230,1560,230,1440,230C1320,230,1200,230,1080,230C960,230,840,230,720,230C600,230,480,230,360,230C240,230,120,230,60,230L0,230Z"/></svg>